<?xml version="1.0" encoding="utf-8"?>
<!-- Generator: Adobe Illustrator 19.2.1, SVG Export Plug-In . SVG Version: 6.00 Build 0)  -->
<!DOCTYPE svg PUBLIC "-//W3C//DTD SVG 1.1//EN" "http://www.w3.org/Graphics/SVG/1.1/DTD/svg11.dtd">
<svg version="1.1" xmlns="http://www.w3.org/2000/svg" xmlns:xlink="http://www.w3.org/1999/xlink" x="0px" y="0px" width="800px"
	 height="653.967px" viewBox="0 0 800 653.967" enable-background="new 0 0 800 653.967" xml:space="preserve">
<g id="Guias">
</g>
<g id="Capa_2">
	<linearGradient id="SVGID_1_" gradientUnits="userSpaceOnUse" x1="800" y1="326.9836" x2="-2.936122e-08" y2="326.9836">
		<stop  offset="0.0056" style="stop-color:#E2F3FE"/>
		<stop  offset="0.4494" style="stop-color:#BCE4FA"/>
		<stop  offset="1" style="stop-color:#A7D5F4"/>
	</linearGradient>
	<rect fill="url(#SVGID_1_)" width="800" height="653.967"/>
	<g>
		<g>
			<g>
				<circle fill="#FFFF00" cx="392.161" cy="209.701" r="17.248"/>
				<path fill="#FFFF00" d="M393.65,189.661c0,0.377-0.611,0.682-1.364,0.682l0,0c-0.754,0-1.365-0.305-1.365-0.682v-5.989
					c0-0.377,0.611-0.682,1.365-0.682l0,0c0.753,0,1.364,0.305,1.364,0.682V189.661z"/>
				<path fill="#FFFF00" d="M407.384,196.583c-0.267,0.267-0.915,0.05-1.447-0.482l0,0c-0.533-0.533-0.749-1.181-0.483-1.448
					l4.235-4.234c0.267-0.266,0.915-0.05,1.448,0.483l0,0c0.532,0.533,0.749,1.181,0.482,1.447L407.384,196.583z"/>
				<path fill="#FFFF00" d="M412.2,211.19c-0.377,0-0.682-0.612-0.682-1.365l0,0c0-0.754,0.305-1.366,0.682-1.366h5.989
					c0.376,0,0.682,0.611,0.682,1.366l0,0c0,0.753-0.306,1.365-0.682,1.365H412.2z"/>
				<path fill="#FFFF00" d="M405.278,224.924c-0.267-0.267-0.05-0.915,0.482-1.447l0,0c0.533-0.533,1.181-0.75,1.448-0.483
					l4.235,4.235c0.266,0.267,0.05,0.915-0.483,1.448l0,0c-0.532,0.533-1.181,0.749-1.447,0.483L405.278,224.924z"/>
				<path fill="#FFFF00" d="M390.672,229.74c0-0.377,0.612-0.682,1.365-0.682l0,0c0.754,0,1.365,0.305,1.365,0.682v5.989
					c0,0.377-0.611,0.682-1.365,0.682l0,0c-0.753,0-1.365-0.305-1.365-0.682V229.74z"/>
				<path fill="#FFFF00" d="M376.938,222.818c0.267-0.266,0.915-0.05,1.448,0.483l0,0c0.533,0.533,0.75,1.181,0.483,1.448
					l-4.235,4.234c-0.266,0.267-0.915,0.05-1.448-0.483l0,0c-0.533-0.533-0.749-1.181-0.483-1.447L376.938,222.818z"/>
				<path fill="#FFFF00" d="M372.121,208.212c0.377,0,0.682,0.611,0.682,1.364l0,0c0,0.754-0.306,1.366-0.682,1.366h-5.989
					c-0.377,0-0.682-0.611-0.682-1.366l0,0c0-0.753,0.305-1.364,0.682-1.364H372.121z"/>
				<path fill="#FFFF00" d="M379.044,194.477c0.267,0.267,0.05,0.915-0.482,1.448l0,0c-0.533,0.533-1.182,0.75-1.448,0.483
					l-4.234-4.235c-0.267-0.266-0.05-0.915,0.483-1.448l0,0c0.533-0.533,1.181-0.749,1.447-0.482L379.044,194.477z"/>
			</g>
			<g>
				<path fill="#FFFFFF" d="M433.966,199.225c-8.4,0-15.869,3.968-20.649,10.126c-3.281-1.864-7.073-2.935-11.117-2.935
					c-7.012,0-13.276,3.203-17.409,8.225c-1.935-0.667-4.01-1.034-6.172-1.034c-10.462,0-18.943,8.481-18.943,18.943
					c0,10.462,8.481,18.943,18.943,18.943c4.204,0,19.02,0,23.582,0c5.864,0,25.484,0,31.766,0c14.433,0,26.133-11.7,26.133-26.134
					C460.1,210.925,448.4,199.225,433.966,199.225z"/>
				<path fill="#9E9E9E" d="M433.966,206.223c10.551,0,19.135,8.584,19.135,19.135s-8.584,19.135-19.135,19.135H402.2h-23.582
					c-6.586,0-11.944-5.358-11.944-11.945s5.358-11.944,11.944-11.944c1.327,0,2.637,0.219,3.892,0.652l4.595,1.584l3.089-3.752
					c2.968-3.606,7.344-5.674,12.006-5.674c2.684,0,5.333,0.699,7.66,2.021l5.269,2.994l3.716-4.787
					C422.505,208.927,428.017,206.223,433.966,206.223 M433.966,199.225c-8.4,0-15.869,3.968-20.649,10.126
					c-3.281-1.864-7.073-2.935-11.117-2.935c-7.012,0-13.276,3.203-17.409,8.225c-1.935-0.667-4.01-1.034-6.172-1.034
					c-10.462,0-18.943,8.481-18.943,18.943c0,10.462,8.481,18.943,18.943,18.943c4.204,0,19.02,0,23.582,0
					c5.865,0,25.484,0,31.766,0c14.433,0,26.133-11.7,26.133-26.134C460.1,210.925,448.4,199.225,433.966,199.225L433.966,199.225z"
					/>
			</g>
		</g>
		<g>
			<path fill="#FFFFFF" d="M587.927,199.225c-8.4,0-15.869,3.968-20.649,10.126c-3.282-1.864-7.073-2.935-11.117-2.935
				c-7.013,0-13.276,3.203-17.409,8.225c-1.935-0.667-4.01-1.034-6.173-1.034c-10.462,0-18.943,8.481-18.943,18.943
				c0,10.462,8.481,18.943,18.943,18.943c4.204,0,19.02,0,23.582,0c5.864,0,25.483,0,31.766,0c14.433,0,26.133-11.7,26.133-26.134
				C614.06,210.925,602.36,199.225,587.927,199.225z"/>
			<path fill="#9E9E9E" d="M587.927,206.223c10.551,0,19.135,8.584,19.135,19.135s-8.584,19.135-19.135,19.135h-31.766h-23.582
				c-6.586,0-11.945-5.358-11.945-11.945s5.358-11.944,11.945-11.944c1.327,0,2.637,0.219,3.892,0.652l4.595,1.584l3.089-3.753
				c2.968-3.606,7.344-5.674,12.006-5.674c2.683,0,5.332,0.699,7.66,2.021l5.269,2.993l3.716-4.787
				C576.466,208.927,581.977,206.223,587.927,206.223 M587.927,199.225c-8.4,0-15.869,3.968-20.649,10.126
				c-3.282-1.864-7.073-2.935-11.117-2.935c-7.013,0-13.276,3.203-17.409,8.225c-1.935-0.667-4.01-1.034-6.173-1.034
				c-10.462,0-18.943,8.481-18.943,18.943c0,10.462,8.481,18.943,18.943,18.943c4.204,0,19.02,0,23.582,0c5.864,0,25.483,0,31.766,0
				c14.433,0,26.133-11.7,26.133-26.134C614.06,210.925,602.36,199.225,587.927,199.225L587.927,199.225z"/>
		</g>
		<g>
			<g>
				<circle fill="#FFFF00" cx="256.161" cy="225.358" r="32.425"/>
				<path fill="#FFFF00" d="M258.96,187.685c0,0.709-1.15,1.283-2.566,1.283l0,0c-1.417,0-2.567-0.574-2.567-1.283v-11.259
					c0-0.709,1.15-1.283,2.567-1.283l0,0c1.416,0,2.566,0.574,2.566,1.283V187.685z"/>
				<path fill="#FFFF00" d="M284.78,200.698c-0.501,0.501-1.72,0.094-2.721-0.907l0,0c-1.003-1.002-1.409-2.221-0.908-2.722
					l7.961-7.961c0.501-0.501,1.72-0.094,2.722,0.908l0,0c1.001,1.001,1.408,2.22,0.907,2.721L284.78,200.698z"/>
				<path fill="#FFFF00" d="M293.835,228.158c-0.709,0-1.283-1.15-1.283-2.566l0,0c0-1.417,0.574-2.567,1.283-2.567h11.259
					c0.709,0,1.283,1.15,1.283,2.567l0,0c0,1.416-0.574,2.566-1.283,2.566H293.835z"/>
				<path fill="#FFFF00" d="M280.821,253.977c-0.501-0.501-0.094-1.72,0.907-2.721l0,0c1.002-1.003,2.221-1.409,2.722-0.908
					l7.961,7.961c0.501,0.501,0.094,1.72-0.908,2.722l0,0c-1.001,1.001-2.22,1.408-2.721,0.907L280.821,253.977z"/>
				<path fill="#FFFF00" d="M253.361,263.032c0-0.709,1.149-1.283,2.565-1.283l0,0c1.417,0,2.567,0.574,2.567,1.283v11.259
					c0,0.709-1.15,1.283-2.567,1.283l0,0c-1.416,0-2.565-0.574-2.565-1.283V263.032z"/>
				<path fill="#FFFF00" d="M227.542,250.019c0.501-0.501,1.72-0.094,2.721,0.907l0,0c1.002,1.002,1.409,2.221,0.908,2.722
					l-7.961,7.961c-0.501,0.501-1.72,0.094-2.722-0.908l0,0c-1.001-1.001-1.408-2.22-0.907-2.721L227.542,250.019z"/>
				<path fill="#FFFF00" d="M218.487,222.559c0.709,0,1.283,1.149,1.283,2.565l0,0c0,1.417-0.574,2.567-1.283,2.567h-11.259
					c-0.709,0-1.283-1.15-1.283-2.567l0,0c0-1.416,0.574-2.565,1.283-2.565H218.487z"/>
				<path fill="#FFFF00" d="M231.501,196.74c0.501,0.501,0.094,1.72-0.907,2.721l0,0c-1.002,1.002-2.221,1.409-2.722,0.908
					l-7.961-7.961c-0.501-0.501-0.094-1.72,0.908-2.722l0,0c1.001-1.001,2.22-1.408,2.721-0.907L231.501,196.74z"/>
			</g>
			<g>
				<path fill="#FFFFFF" d="M303.713,208.301c-5.417,0-10.233,2.559-13.317,6.53c-2.116-1.202-4.561-1.892-7.169-1.892
					c-4.522,0-8.562,2.065-11.227,5.303c-1.248-0.43-2.586-0.667-3.981-0.667c-6.746,0-12.215,5.469-12.215,12.216
					c0,6.747,5.469,12.215,12.215,12.215c2.712,0,12.266,0,15.208,0c3.782,0,16.434,0,20.485,0c9.307,0,16.853-7.545,16.853-16.852
					C320.565,215.846,313.02,208.301,303.713,208.301z"/>
				<path fill="#9E9E9E" d="M303.713,215.299c5.434,0,9.855,4.421,9.855,9.855c0,5.434-4.421,9.854-9.855,9.854h-20.485h-15.208
					c-2.877,0-5.217-2.34-5.217-5.217c0-2.877,2.34-5.218,5.217-5.218c0.58,0,1.152,0.096,1.702,0.285l4.594,1.582l3.088-3.751
					c1.44-1.749,3.563-2.753,5.824-2.753c1.32,0,2.568,0.329,3.711,0.979l5.269,2.994l3.717-4.787
					C297.81,216.693,300.649,215.299,303.713,215.299 M303.713,208.301c-5.417,0-10.233,2.559-13.317,6.53
					c-2.116-1.202-4.561-1.892-7.169-1.892c-4.522,0-8.562,2.065-11.227,5.303c-1.248-0.43-2.586-0.667-3.981-0.667
					c-6.746,0-12.215,5.469-12.215,12.216c0,6.747,5.469,12.215,12.215,12.215c2.712,0,12.266,0,15.208,0c3.782,0,16.434,0,20.485,0
					c9.307,0,16.853-7.545,16.853-16.852C320.565,215.846,313.02,208.301,303.713,208.301L303.713,208.301z"/>
			</g>
		</g>
		<g>
			<circle fill="#FFFF00" cx="101.967" cy="225.358" r="32.425"/>
			<path fill="#FFFF00" d="M104.767,187.685c0,0.709-1.149,1.283-2.565,1.283l0,0c-1.417,0-2.567-0.574-2.567-1.283v-11.259
				c0-0.709,1.15-1.283,2.567-1.283l0,0c1.416,0,2.565,0.574,2.565,1.283V187.685z"/>
			<path fill="#FFFF00" d="M130.586,200.698c-0.501,0.501-1.72,0.094-2.721-0.907l0,0c-1.003-1.002-1.409-2.221-0.908-2.722
				l7.961-7.961c0.501-0.501,1.72-0.094,2.722,0.908l0,0c1.001,1.001,1.408,2.22,0.907,2.721L130.586,200.698z"/>
			<path fill="#FFFF00" d="M139.641,228.158c-0.709,0-1.283-1.15-1.283-2.566l0,0c0-1.417,0.574-2.567,1.283-2.567H150.9
				c0.709,0,1.283,1.15,1.283,2.567l0,0c0,1.416-0.574,2.566-1.283,2.566H139.641z"/>
			<path fill="#FFFF00" d="M126.627,253.977c-0.501-0.501-0.094-1.72,0.907-2.721l0,0c1.002-1.003,2.221-1.409,2.722-0.908
				l7.961,7.961c0.501,0.501,0.094,1.72-0.908,2.722l0,0c-1.001,1.001-2.22,1.408-2.721,0.907L126.627,253.977z"/>
			<path fill="#FFFF00" d="M99.168,263.032c0-0.709,1.149-1.283,2.565-1.283l0,0c1.417,0,2.567,0.574,2.567,1.283v11.259
				c0,0.709-1.149,1.283-2.567,1.283l0,0c-1.416,0-2.565-0.574-2.565-1.283V263.032z"/>
			<path fill="#FFFF00" d="M73.349,250.019c0.501-0.501,1.72-0.094,2.721,0.907l0,0c1.002,1.002,1.409,2.221,0.908,2.722
				l-7.961,7.961c-0.501,0.501-1.72,0.094-2.722-0.908l0,0c-1.001-1.001-1.408-2.22-0.907-2.721L73.349,250.019z"/>
			<path fill="#FFFF00" d="M64.294,222.559c0.709,0,1.283,1.149,1.283,2.565l0,0c0,1.417-0.574,2.567-1.283,2.567H53.035
				c-0.709,0-1.283-1.15-1.283-2.567l0,0c0-1.416,0.574-2.565,1.283-2.565H64.294z"/>
			<path fill="#FFFF00" d="M77.307,196.74c0.501,0.501,0.094,1.72-0.907,2.721l0,0c-1.002,1.002-2.221,1.409-2.722,0.908
				l-7.961-7.961c-0.501-0.501-0.094-1.72,0.908-2.722l0,0c1.001-1.001,2.22-1.408,2.721-0.907L77.307,196.74z"/>
		</g>
		<g>
			<g>
				<path fill="#FFFFFF" d="M434.633,329.71c-8.4,0-15.869,3.968-20.65,10.126c-3.282-1.864-7.073-2.935-11.116-2.935
					c-7.013,0-13.276,3.203-17.409,8.225c-1.935-0.667-4.01-1.034-6.173-1.034c-10.462,0-18.943,8.481-18.943,18.943
					c0,10.462,8.481,18.943,18.943,18.943c4.204,0,19.02,0,23.582,0c5.864,0,25.483,0,31.766,0c14.433,0,26.133-11.7,26.133-26.134
					C460.766,341.41,449.066,329.71,434.633,329.71z"/>
				<path fill="#9E9E9E" d="M434.633,336.708c10.551,0,19.135,8.584,19.135,19.135c0,10.551-8.584,19.135-19.135,19.135h-31.766
					h-23.582c-6.586,0-11.945-5.358-11.945-11.944c0-6.586,5.358-11.944,11.945-11.944c1.327,0,2.637,0.219,3.893,0.652l4.595,1.583
					l3.089-3.752c2.968-3.606,7.344-5.674,12.006-5.674c2.683,0,5.332,0.699,7.659,2.021l5.269,2.993l3.716-4.787
					C423.171,339.412,428.683,336.708,434.633,336.708 M434.633,329.71c-8.4,0-15.869,3.968-20.65,10.126
					c-3.282-1.864-7.073-2.935-11.116-2.935c-7.013,0-13.276,3.203-17.409,8.225c-1.935-0.667-4.01-1.034-6.173-1.034
					c-10.462,0-18.943,8.481-18.943,18.943c0,10.462,8.481,18.943,18.943,18.943c4.204,0,19.02,0,23.582,0
					c5.864,0,25.483,0,31.766,0c14.433,0,26.133-11.7,26.133-26.134C460.766,341.41,449.066,329.71,434.633,329.71L434.633,329.71z"
					/>
			</g>
			<path fill="#9E9E9E" d="M409.887,428.09c-6.202,0-11.248-5.046-11.248-11.249s5.046-11.249,11.248-11.249
				c6.202,0,11.249,5.046,11.249,11.249S416.09,428.09,409.887,428.09z M409.887,412.591c-2.344,0-4.25,1.907-4.25,4.25
				c0,2.344,1.907,4.251,4.25,4.251c2.344,0,4.25-1.907,4.25-4.251C414.138,414.497,412.231,412.591,409.887,412.591z"/>
			<g>
				<path fill="#9E9E9E" d="M390.69,406.783c-6.203,0-11.249-5.046-11.249-11.249s5.046-11.249,11.249-11.249
					s11.249,5.046,11.249,11.249S396.893,406.783,390.69,406.783z M390.69,391.283c-2.344,0-4.25,1.907-4.25,4.251
					c0,2.344,1.907,4.25,4.25,4.25s4.25-1.907,4.25-4.25C394.941,393.19,393.034,391.283,390.69,391.283z"/>
				<path fill="#9E9E9E" d="M429.084,406.783c-6.203,0-11.248-5.046-11.248-11.249s5.046-11.249,11.248-11.249
					s11.249,5.046,11.249,11.249S435.287,406.783,429.084,406.783z M429.084,391.283c-2.343,0-4.25,1.907-4.25,4.251
					c0,2.344,1.907,4.25,4.25,4.25c2.344,0,4.251-1.907,4.251-4.25C433.335,393.19,431.428,391.283,429.084,391.283z"/>
			</g>
		</g>
		<g>
			<g>
				<path fill="#9E9E9E" d="M587.927,330.439c-8.4,0-15.869,3.967-20.649,10.126c-3.282-1.864-7.073-2.935-11.117-2.935
					c-7.013,0-13.276,3.203-17.409,8.225c-1.935-0.667-4.01-1.034-6.173-1.034c-10.462,0-18.943,8.481-18.943,18.943
					c0,10.462,8.481,18.943,18.943,18.943c4.204,0,19.02,0,23.582,0c5.864,0,25.483,0,31.766,0c14.433,0,26.133-11.7,26.133-26.133
					C614.06,342.139,602.36,330.439,587.927,330.439z"/>
				<path fill="#616161" d="M587.927,337.437c10.551,0,19.135,8.584,19.135,19.135c0,10.551-8.584,19.135-19.135,19.135h-31.766
					h-23.582c-6.586,0-11.945-5.358-11.945-11.944c0-6.586,5.358-11.944,11.945-11.944c1.327,0,2.637,0.219,3.893,0.652l4.595,1.584
					l3.089-3.753c2.968-3.606,7.344-5.674,12.006-5.674c2.683,0,5.332,0.699,7.66,2.021l5.269,2.993l3.716-4.787
					C576.465,340.142,581.977,337.437,587.927,337.437 M587.927,330.439c-8.4,0-15.869,3.967-20.649,10.126
					c-3.282-1.864-7.073-2.935-11.117-2.935c-7.013,0-13.276,3.203-17.409,8.225c-1.935-0.667-4.01-1.034-6.173-1.034
					c-10.462,0-18.943,8.481-18.943,18.943c0,10.462,8.481,18.943,18.943,18.943c4.204,0,19.02,0,23.582,0
					c5.864,0,25.483,0,31.766,0c14.433,0,26.133-11.7,26.133-26.134C614.06,342.139,602.36,330.439,587.927,330.439L587.927,330.439
					z"/>
			</g>
			<g>
				<path fill="#676566" d="M557.55,398.359h-31.492c-1.353,0-2.449-1.097-2.449-2.449c0-1.353,1.097-2.449,2.449-2.449h31.492
					c1.353,0,2.449,1.097,2.449,2.449C559.999,397.263,558.902,398.359,557.55,398.359z"/>
				<path fill="#616161" d="M600.938,398.359h-31.492c-1.353,0-2.449-1.097-2.449-2.449c0-1.353,1.097-2.449,2.449-2.449h31.492
					c1.352,0,2.449,1.097,2.449,2.449C603.388,397.263,602.291,398.359,600.938,398.359z"/>
				<path fill="#676566" d="M579.594,410.42h-31.492c-1.353,0-2.449-1.097-2.449-2.449c0-1.353,1.097-2.449,2.449-2.449h31.492
					c1.352,0,2.449,1.097,2.449,2.449C582.043,409.323,580.946,410.42,579.594,410.42z"/>
			</g>
		</g>
		<g>
			<g>
				<path fill="#33CCCC" d="M115.414,536.778H71.809c-1.932,0-3.499-1.566-3.499-3.499c0-1.933,1.567-3.499,3.499-3.499h43.605
					c1.932,0,3.499,1.566,3.499,3.499C118.913,535.211,117.346,536.778,115.414,536.778z"/>
				<g>
					<polygon fill="#33CCCC" points="107.552,522.913 111.956,533.279 107.552,543.645 132.125,533.279 					"/>
				</g>
			</g>
			<path fill="#33CCCC" d="M71.809,552.174c-1.932,0-3.499-1.566-3.499-3.499v-15.396c0-1.933,1.567-3.499,3.499-3.499
				c1.932,0,3.499,1.566,3.499,3.499v15.396C75.308,550.607,73.742,552.174,71.809,552.174z"/>
			<path fill="#33CCCC" d="M84.089,552.174c-1.932,0-3.499-1.566-3.499-3.499v-15.396c0-1.933,1.567-3.499,3.499-3.499
				c1.932,0,3.499,1.566,3.499,3.499v15.396C87.588,550.607,86.021,552.174,84.089,552.174z"/>
			<path fill="#33CCCC" d="M96.368,552.174c-1.932,0-3.499-1.566-3.499-3.499v-15.396c0-1.933,1.567-3.499,3.499-3.499
				c1.932,0,3.499,1.566,3.499,3.499v15.396C99.868,550.607,98.301,552.174,96.368,552.174z"/>
		</g>
		<g>
			<g>
				<path fill="#33CCCC" d="M585.173,558.102c-0.895,0-1.791-0.342-2.474-1.025l-30.833-30.833c-1.367-1.366-1.367-3.582,0-4.948
					c1.365-1.367,3.582-1.367,4.948,0l30.833,30.833c1.367,1.366,1.367,3.582,0,4.948
					C586.964,557.761,586.068,558.102,585.173,558.102z"/>
				<g>
					<polygon fill="#33CCCC" points="552.569,536.66 556.785,526.216 567.229,522 542.523,511.954 					"/>
				</g>
			</g>
		</g>
		<g>
			<g>
				<path fill="#33CCCC" d="M402.19,566.936c-1.932,0-3.499-1.566-3.499-3.499v-43.605c0-1.933,1.567-3.499,3.499-3.499
					s3.499,1.566,3.499,3.499v43.605C405.689,565.369,404.122,566.936,402.19,566.936z"/>
				<g>
					<polygon fill="#33CCCC" points="391.824,527.694 402.19,523.29 412.556,527.694 402.19,503.121 					"/>
				</g>
			</g>
			<path fill="#33CCCC" d="M417.586,566.936H402.19c-1.932,0-3.499-1.566-3.499-3.499c0-1.933,1.567-3.499,3.499-3.499h15.396
				c1.933,0,3.499,1.566,3.499,3.499C421.085,565.369,419.518,566.936,417.586,566.936z"/>
		</g>
		<g>
			<g>
				<path fill="#33CCCC" d="M234.603,552.659c-0.896,0-1.791-0.342-2.474-1.025c-1.367-1.366-1.367-3.582,0-4.948l30.833-30.833
					c1.367-1.367,3.582-1.367,4.949,0c1.366,1.366,1.366,3.582,0,4.948l-30.833,30.833
					C236.394,552.317,235.498,552.659,234.603,552.659z"/>
				<g>
					<polygon fill="#33CCCC" points="252.546,516.556 262.99,520.772 267.206,531.216 277.252,506.511 					"/>
				</g>
			</g>
			<path fill="#33CCCC" d="M245.489,563.546c-0.896,0-1.791-0.342-2.474-1.025l-10.886-10.887c-1.367-1.366-1.367-3.582,0-4.949
				c1.368-1.365,3.583-1.365,4.949,0.001l10.886,10.887c1.366,1.366,1.366,3.582,0,4.949
				C247.28,563.204,246.384,563.546,245.489,563.546z"/>
			<path fill="#33CCCC" d="M254.172,554.863c-0.896,0-1.791-0.342-2.474-1.025l-10.887-10.887c-1.367-1.366-1.367-3.582,0-4.948
				c1.367-1.367,3.582-1.367,4.949,0l10.887,10.887c1.367,1.366,1.367,3.582,0,4.948
				C255.963,554.521,255.068,554.863,254.172,554.863z"/>
		</g>
		<g>
			<g>
				<path fill="#FFFFFF" d="M746.501,236.957c0,15.847-12.846,28.693-28.693,28.693c-15.846,0-28.693-12.845-28.693-28.693
					c0-15.846,28.693-53.992,28.693-53.992S746.501,221.111,746.501,236.957z"/>
				<path fill="#00B0FF" d="M717.808,269.149c-17.75,0-32.192-14.441-32.192-32.192c0-16.538,26.387-52.096,29.395-56.095
					l2.797-3.718l2.797,3.718c3.008,4,29.395,39.557,29.395,56.095C750,254.708,735.559,269.149,717.808,269.149z M717.808,188.88
					c-8.974,12.49-25.193,37.296-25.193,48.077c0,13.892,11.302,25.194,25.193,25.194c13.892,0,25.193-11.302,25.193-25.194
					C743.002,226.17,726.783,201.368,717.808,188.88z"/>
			</g>
			<g>
				<g>
					<path fill="#00B0FF" d="M715.19,225.08c0,6.241-3.279,9.34-7.107,9.34c-3.691,0-6.877-2.962-6.925-8.93
						c0-5.921,3.234-9.247,7.155-9.247C712.456,216.243,715.19,219.433,715.19,225.08z M704.348,225.355
						c-0.089,3.78,1.32,6.65,3.829,6.65c2.641,0,3.824-2.824,3.824-6.741c0-3.6-1.046-6.606-3.824-6.606
						C705.668,218.658,704.348,221.62,704.348,225.355z M707.812,246.855l17.4-30.611h2.552l-17.403,30.611H707.812z
						 M734.458,237.335c0,6.241-3.278,9.338-7.062,9.338c-3.686,0-6.876-2.962-6.921-8.884c0-5.966,3.235-9.291,7.151-9.291
						C731.77,228.498,734.458,231.686,734.458,237.335z M723.617,237.608c-0.044,3.781,1.413,6.65,3.872,6.65
						c2.641,0,3.828-2.824,3.828-6.741c0-3.6-1.05-6.606-3.828-6.606C724.986,230.911,723.617,233.873,723.617,237.608z"/>
					<path fill="#00B0FF" d="M710.695,247.428h-3.869l18.052-31.759h3.872L710.695,247.428z M708.798,246.281h1.229l16.751-29.464
						h-1.232L708.798,246.281z M727.396,247.247c-3.695,0-7.445-2.923-7.494-9.453c0-6.819,3.88-9.869,7.725-9.869
						c4.568,0,7.406,3.606,7.406,9.41C735.032,244.182,731.197,247.247,727.396,247.247z M727.626,229.072
						c-3.934,0-6.577,3.504-6.577,8.717c0.038,5.046,2.53,8.31,6.347,8.31c3.941,0,6.488-3.44,6.488-8.764
						C733.884,232.161,731.545,229.072,727.626,229.072z M727.49,244.832c-0.964,0-1.85-0.38-2.562-1.101
						c-1.229-1.244-1.915-3.478-1.884-6.13c0-4.41,1.745-7.264,4.446-7.264c2.797,0,4.402,2.617,4.402,7.18
						C731.891,242.166,730.287,244.832,727.49,244.832z M727.49,231.485c-2.279,0-3.298,3.076-3.298,6.123
						c-0.028,2.354,0.538,4.29,1.553,5.317c0.498,0.504,1.085,0.76,1.745,0.76c2.937,0,3.254-4.313,3.254-6.167
						C730.743,235.703,730.426,231.485,727.49,231.485z M708.083,234.994c-3.695,0-7.446-2.937-7.499-9.499
						c0-5.787,3.179-9.826,7.729-9.826c4.596,0,7.451,3.606,7.451,9.411C715.764,231.928,711.906,234.994,708.083,234.994z
						 M708.313,216.817c-3.936,0-6.581,3.485-6.581,8.673c0.041,5.074,2.534,8.356,6.351,8.356c3.969,0,6.533-3.441,6.533-8.766
						C714.616,219.906,712.26,216.817,708.313,216.817z M708.176,232.579c-0.986,0-1.882-0.385-2.594-1.114
						c-1.212-1.24-1.87-3.472-1.808-6.123c0-4.403,1.728-7.258,4.402-7.258c2.795,0,4.398,2.617,4.398,7.18
						C712.574,229.913,710.971,232.579,708.176,232.579z M708.176,219.232c-2.402,0-3.254,3.299-3.254,6.123
						c-0.055,2.358,0.485,4.288,1.481,5.308c0.498,0.51,1.095,0.769,1.773,0.769c2.934,0,3.25-4.313,3.25-6.167
						C711.427,223.011,711.004,219.232,708.176,219.232z"/>
				</g>
			</g>
		</g>
		<g>
			<path fill="#D50000" d="M717.808,576.319c-9.297,0-16.861-7.564-16.861-16.861c0-5.573,2.799-10.803,7.381-13.928v-45.811
				c0-5.227,4.253-9.48,9.48-9.48c5.227,0,9.48,4.253,9.48,9.48v45.811c4.582,3.125,7.381,8.355,7.381,13.928
				C734.67,568.755,727.105,576.319,717.808,576.319z M717.808,494.437c-2.912,0-5.281,2.369-5.281,5.281v48.179l-1.047,0.606
				c-3.907,2.263-6.334,6.46-6.334,10.954c0,6.982,5.68,12.662,12.662,12.662s12.662-5.681,12.662-12.662
				c0-4.493-2.427-8.691-6.334-10.954l-1.047-0.606v-48.179C723.09,496.807,720.72,494.437,717.808,494.437z"/>
			<path fill="#D50000" d="M725.189,514.054h-7.381c-1.16,0-2.099-0.94-2.099-2.099c0-1.16,0.94-2.099,2.099-2.099h7.381
				c1.16,0,2.099,0.94,2.099,2.099C727.289,513.115,726.349,514.054,725.189,514.054z"/>
			<path fill="#D50000" d="M725.189,523.715h-7.381c-1.16,0-2.099-0.94-2.099-2.1c0-1.16,0.94-2.099,2.099-2.099h7.381
				c1.16,0,2.099,0.94,2.099,2.099C727.289,522.775,726.349,523.715,725.189,523.715z"/>
			<path fill="#D50000" d="M725.189,533.377h-7.381c-1.16,0-2.099-0.94-2.099-2.099c0-1.16,0.94-2.099,2.099-2.099h7.381
				c1.16,0,2.099,0.94,2.099,2.099C727.289,532.437,726.349,533.377,725.189,533.377z"/>
			<circle fill="#D50000" cx="717.808" cy="559.172" r="7.381"/>
			<path fill="#D50000" d="M717.808,561.271c-1.16,0-2.099-0.94-2.099-2.099v-19.361c0-1.16,0.94-2.099,2.099-2.099
				c1.16,0,2.099,0.94,2.099,2.099v19.361C719.908,560.332,718.968,561.271,717.808,561.271z"/>
		</g>
		<g>
			<path fill="#01579B" d="M717.808,422.359c-9.297,0-16.861-7.564-16.861-16.861c0-5.574,2.799-10.803,7.381-13.928v-45.811
				c0-5.227,4.253-9.48,9.48-9.48c5.227,0,9.48,4.253,9.48,9.48v45.811c4.582,3.125,7.381,8.354,7.381,13.928
				C734.67,414.795,727.105,422.359,717.808,422.359z M717.808,340.477c-2.912,0-5.281,2.369-5.281,5.281v48.179l-1.047,0.607
				c-3.907,2.263-6.334,6.46-6.334,10.953c0,6.982,5.68,12.662,12.662,12.662s12.662-5.68,12.662-12.662
				c0-4.493-2.427-8.691-6.334-10.953l-1.047-0.607v-48.179C723.09,342.846,720.72,340.477,717.808,340.477z"/>
			<path fill="#01579B" d="M725.189,360.094h-7.381c-1.16,0-2.099-0.94-2.099-2.1c0-1.159,0.94-2.099,2.099-2.099h7.381
				c1.16,0,2.099,0.94,2.099,2.099C727.289,359.154,726.349,360.094,725.189,360.094z"/>
			<path fill="#01579B" d="M725.189,369.755h-7.381c-1.16,0-2.099-0.94-2.099-2.099c0-1.159,0.94-2.099,2.099-2.099h7.381
				c1.16,0,2.099,0.94,2.099,2.099C727.289,368.815,726.349,369.755,725.189,369.755z"/>
			<path fill="#01579B" d="M725.189,379.417h-7.381c-1.16,0-2.099-0.94-2.099-2.099c0-1.159,0.94-2.1,2.099-2.1h7.381
				c1.16,0,2.099,0.94,2.099,2.1C727.289,378.477,726.349,379.417,725.189,379.417z"/>
			<circle fill="#01579B" cx="717.808" cy="405.212" r="7.381"/>
			<path fill="#01579B" d="M717.808,407.311c-1.16,0-2.099-0.94-2.099-2.099V385.85c0-1.159,0.94-2.099,2.099-2.099
				c1.16,0,2.099,0.94,2.099,2.099v19.361C719.908,406.371,718.968,407.311,717.808,407.311z"/>
		</g>
		<g>
			<g>
				<path fill="#FFFFFF" d="M278.251,329.71c-8.4,0-15.869,3.968-20.649,10.126c-3.282-1.864-7.073-2.935-11.117-2.935
					c-7.013,0-13.276,3.203-17.409,8.225c-1.935-0.667-4.01-1.034-6.173-1.034c-10.462,0-18.943,8.481-18.943,18.943
					c0,10.462,8.481,18.943,18.943,18.943c4.204,0,19.02,0,23.582,0c5.864,0,25.483,0,31.766,0c14.433,0,26.133-11.7,26.133-26.134
					C304.384,341.41,292.684,329.71,278.251,329.71z"/>
				<path fill="#9E9E9E" d="M278.251,336.708c10.551,0,19.135,8.584,19.135,19.135c0,10.551-8.584,19.135-19.135,19.135h-31.766
					h-23.582c-6.586,0-11.945-5.358-11.945-11.944c0-6.586,5.358-11.944,11.945-11.944c1.327,0,2.637,0.219,3.893,0.652l4.595,1.583
					l3.089-3.753c2.968-3.606,7.344-5.674,12.006-5.674c2.683,0,5.332,0.699,7.66,2.021l5.269,2.993l3.716-4.787
					C266.79,339.412,272.301,336.708,278.251,336.708 M278.251,329.71c-8.4,0-15.869,3.968-20.649,10.126
					c-3.282-1.864-7.073-2.935-11.117-2.935c-7.012,0-13.276,3.203-17.409,8.225c-1.936-0.667-4.01-1.034-6.173-1.034
					c-10.462,0-18.943,8.481-18.943,18.943c0,10.462,8.481,18.943,18.943,18.943c4.204,0,19.02,0,23.582,0
					c5.864,0,25.483,0,31.766,0c14.433,0,26.133-11.7,26.133-26.134C304.384,341.41,292.684,329.71,278.251,329.71L278.251,329.71z"
					/>
			</g>
			<g>
				<g>
					<path fill="#00B0FF" d="M219.531,403.031c-1.353,0-2.449-1.096-2.449-2.449v-14.393c0-1.353,1.097-2.449,2.449-2.449
						s2.449,1.097,2.449,2.449v14.393C221.981,401.934,220.884,403.031,219.531,403.031z"/>
					<path fill="#00B0FF" d="M236.852,403.031c-1.353,0-2.449-1.096-2.449-2.449v-14.393c0-1.353,1.096-2.449,2.449-2.449
						c1.353,0,2.449,1.097,2.449,2.449v14.393C239.301,401.934,238.205,403.031,236.852,403.031z"/>
					<path fill="#00B0FF" d="M254.172,403.031c-1.353,0-2.449-1.096-2.449-2.449v-14.393c0-1.353,1.097-2.449,2.449-2.449
						c1.353,0,2.449,1.097,2.449,2.449v14.393C256.622,401.934,255.525,403.031,254.172,403.031z"/>
					<path fill="#00B0FF" d="M271.493,403.031c-1.353,0-2.449-1.096-2.449-2.449v-14.393c0-1.353,1.097-2.449,2.449-2.449
						c1.353,0,2.449,1.097,2.449,2.449v14.393C273.942,401.934,272.846,403.031,271.493,403.031z"/>
					<path fill="#00B0FF" d="M288.814,403.031c-1.353,0-2.449-1.096-2.449-2.449v-14.393c0-1.353,1.096-2.449,2.449-2.449
						c1.353,0,2.449,1.097,2.449,2.449v14.393C291.263,401.934,290.166,403.031,288.814,403.031z"/>
				</g>
				<g>
					<path fill="#00B0FF" d="M228.192,414.978c-1.353,0-2.449-1.097-2.449-2.449v-14.393c0-1.353,1.097-2.449,2.449-2.449
						s2.449,1.096,2.449,2.449v14.393C230.641,413.881,229.544,414.978,228.192,414.978z"/>
					<path fill="#00B0FF" d="M245.512,414.978c-1.353,0-2.449-1.097-2.449-2.449v-14.393c0-1.353,1.097-2.449,2.449-2.449
						c1.353,0,2.449,1.096,2.449,2.449v14.393C247.961,413.881,246.865,414.978,245.512,414.978z"/>
					<path fill="#00B0FF" d="M262.833,414.978c-1.353,0-2.449-1.097-2.449-2.449v-14.393c0-1.353,1.096-2.449,2.449-2.449
						c1.353,0,2.449,1.096,2.449,2.449v14.393C265.282,413.881,264.185,414.978,262.833,414.978z"/>
					<path fill="#00B0FF" d="M280.153,414.978c-1.353,0-2.449-1.097-2.449-2.449v-14.393c0-1.353,1.097-2.449,2.449-2.449
						c1.353,0,2.449,1.096,2.449,2.449v14.393C282.603,413.881,281.506,414.978,280.153,414.978z"/>
				</g>
				<g>
					<path fill="#00B0FF" d="M236.852,427.188c-1.353,0-2.449-1.097-2.449-2.449v-14.393c0-1.353,1.096-2.449,2.449-2.449
						c1.353,0,2.449,1.097,2.449,2.449v14.393C239.301,426.091,238.205,427.188,236.852,427.188z"/>
					<path fill="#00B0FF" d="M254.172,427.188c-1.353,0-2.449-1.097-2.449-2.449v-14.393c0-1.353,1.097-2.449,2.449-2.449
						c1.353,0,2.449,1.097,2.449,2.449v14.393C256.622,426.091,255.525,427.188,254.172,427.188z"/>
					<path fill="#00B0FF" d="M271.493,427.188c-1.353,0-2.449-1.097-2.449-2.449v-14.393c0-1.353,1.097-2.449,2.449-2.449
						c1.353,0,2.449,1.097,2.449,2.449v14.393C273.942,426.091,272.846,427.188,271.493,427.188z"/>
				</g>
			</g>
		</g>
		<g>
			<g>
				<path fill="#FFFFFF" d="M124.291,329.71c-8.4,0-15.869,3.968-20.649,10.126c-3.282-1.864-7.073-2.935-11.117-2.935
					c-7.013,0-13.276,3.203-17.409,8.225c-1.935-0.667-4.01-1.034-6.173-1.034c-10.462,0-18.943,8.481-18.943,18.943
					c0,10.462,8.481,18.943,18.943,18.943c4.204,0,19.02,0,23.582,0c5.864,0,25.483,0,31.766,0c14.433,0,26.133-11.7,26.133-26.134
					C150.424,341.41,138.724,329.71,124.291,329.71z"/>
				<path fill="#9E9E9E" d="M124.291,336.708c10.551,0,19.135,8.584,19.135,19.135c0,10.551-8.584,19.135-19.135,19.135H92.525
					H68.943c-6.586,0-11.945-5.358-11.945-11.944c0-6.586,5.358-11.944,11.945-11.944c1.327,0,2.637,0.219,3.893,0.652l4.595,1.583
					l3.089-3.752c2.968-3.606,7.344-5.674,12.006-5.674c2.683,0,5.332,0.699,7.66,2.021l5.269,2.993l3.716-4.787
					C112.83,339.412,118.341,336.708,124.291,336.708 M124.291,329.71c-8.4,0-15.869,3.968-20.649,10.126
					c-3.282-1.864-7.073-2.935-11.117-2.935c-7.013,0-13.276,3.203-17.409,8.225c-1.935-0.667-4.01-1.034-6.173-1.034
					c-10.462,0-18.943,8.481-18.943,18.943c0,10.462,8.481,18.943,18.943,18.943c4.204,0,19.02,0,23.582,0
					c5.864,0,25.483,0,31.766,0c14.433,0,26.133-11.7,26.133-26.134C150.424,341.41,138.724,329.71,124.291,329.71L124.291,329.71z"
					/>
			</g>
			<g>
				<g>
					<path fill="#00B0FF" d="M74.231,405.88c-1.353,0-2.449-1.096-2.449-2.449v-14.393c0-1.353,1.096-2.449,2.449-2.449
						c1.353,0,2.449,1.097,2.449,2.449v14.393C76.681,404.784,75.584,405.88,74.231,405.88z"/>
					<path fill="#00B0FF" d="M91.552,405.88c-1.353,0-2.449-1.096-2.449-2.449v-14.393c0-1.353,1.097-2.449,2.449-2.449
						s2.449,1.097,2.449,2.449v14.393C94.001,404.784,92.905,405.88,91.552,405.88z"/>
					<path fill="#00B0FF" d="M108.872,405.88c-1.353,0-2.449-1.096-2.449-2.449v-14.393c0-1.353,1.097-2.449,2.449-2.449
						c1.353,0,2.449,1.097,2.449,2.449v14.393C111.322,404.784,110.225,405.88,108.872,405.88z"/>
					<path fill="#00B0FF" d="M126.193,405.88c-1.353,0-2.449-1.096-2.449-2.449v-14.393c0-1.353,1.097-2.449,2.449-2.449
						c1.353,0,2.449,1.097,2.449,2.449v14.393C128.642,404.784,127.546,405.88,126.193,405.88z"/>
				</g>
				<g>
					<path fill="#00B0FF" d="M82.891,418.09c-1.353,0-2.449-1.097-2.449-2.449v-14.393c0-1.353,1.096-2.449,2.449-2.449
						c1.353,0,2.449,1.096,2.449,2.449v14.393C85.341,416.993,84.244,418.09,82.891,418.09z"/>
					<path fill="#00B0FF" d="M100.212,418.09c-1.353,0-2.449-1.097-2.449-2.449v-14.393c0-1.353,1.097-2.449,2.449-2.449
						c1.353,0,2.449,1.096,2.449,2.449v14.393C102.661,416.993,101.565,418.09,100.212,418.09z"/>
					<path fill="#00B0FF" d="M117.533,418.09c-1.353,0-2.449-1.097-2.449-2.449v-14.393c0-1.353,1.097-2.449,2.449-2.449
						c1.353,0,2.449,1.096,2.449,2.449v14.393C119.982,416.993,118.885,418.09,117.533,418.09z"/>
				</g>
			</g>
		</g>
	</g>
	<g>
		<path fill="#00B0FF" d="M195.194,49.415c0-0.84,0.54-1.569,1.62-2.19c1.08-0.62,2.199-0.93,3.36-0.93c1.44,0,2.3,0.52,2.58,1.56
			l9.48,32.52l5.1-20.88c0.36-1.44,1.64-2.16,3.84-2.16c2.16,0,3.42,0.72,3.78,2.16l5.1,20.88l9.48-32.52
			c0.279-1.04,1.14-1.56,2.58-1.56c1.16,0,2.28,0.31,3.36,0.93c1.08,0.621,1.62,1.35,1.62,2.19c0,0.24-0.04,0.48-0.12,0.72
			l-11.88,37.74c-0.6,1.76-2.301,2.64-5.1,2.64c-1.2,0-2.28-0.23-3.24-0.69c-0.96-0.459-1.54-1.11-1.74-1.95l-3.84-16.2l-3.9,16.2
			c-0.201,0.84-0.78,1.49-1.74,1.95c-0.96,0.459-2.04,0.69-3.24,0.69c-1.24,0-2.34-0.23-3.3-0.69c-0.96-0.459-1.56-1.11-1.8-1.95
			l-11.88-37.74C195.233,49.896,195.194,49.655,195.194,49.415z"/>
		<path fill="#00B0FF" d="M246.555,78.396v-5.1c0-3.279,1.28-6.1,3.84-8.46c2.56-2.36,5.66-3.54,9.3-3.54
			c3.4,0,6.309,1.075,8.73,3.225c2.419,2.149,3.63,4.852,3.63,8.106c0,1.188-0.15,2.168-0.45,2.941
			c-0.3,0.772-0.761,1.317-1.38,1.634c-0.621,0.317-1.19,0.516-1.71,0.595c-0.52,0.08-1.2,0.119-2.04,0.119h-12.18v0.9
			c0,1.72,0.639,3.11,1.92,4.17c1.28,1.06,2.979,1.59,5.1,1.59c1.52,0,3.02-0.379,4.5-1.14c1.479-0.759,2.439-1.14,2.88-1.14
			c0.84,0,1.54,0.39,2.1,1.17c0.56,0.78,0.84,1.53,0.84,2.25c0,1.12-1.011,2.23-3.03,3.33c-2.021,1.101-4.53,1.65-7.53,1.65
			c-4.281,0-7.77-1.13-10.47-3.39C247.905,85.046,246.555,82.076,246.555,78.396z M254.295,73.356h8.76
			c0.64,0,1.089-0.103,1.35-0.309c0.26-0.206,0.39-0.606,0.39-1.205c0-1.307-0.51-2.372-1.53-3.194
			c-1.02-0.821-2.271-1.233-3.75-1.233c-1.4,0-2.62,0.402-3.66,1.205c-1.041,0.803-1.56,1.859-1.56,3.166V73.356z"/>
		<path fill="#00B0FF" d="M274.994,82.469c0-3.149,1.2-5.365,3.6-6.649c2.4-1.282,5.859-1.924,10.38-1.924h2.46v-0.803
			c0-1.521-0.43-2.848-1.289-3.979c-0.861-1.132-2.19-1.698-3.99-1.698s-3.34,0.34-4.62,1.02c-1.28,0.681-2.02,1.02-2.22,1.02
			c-0.801,0-1.44-0.399-1.92-1.2c-0.48-0.8-0.72-1.68-0.72-2.64c0-1.16,1.029-2.17,3.09-3.03c2.06-0.86,4.23-1.29,6.51-1.29
			c4.359,0,7.599,1.11,9.72,3.33c2.12,2.22,3.18,5.01,3.18,8.37v14.7c0,0.681-0.36,1.26-1.08,1.74c-0.72,0.48-1.62,0.72-2.7,0.72
			c-1,0-1.83-0.256-2.49-0.77c-0.66-0.513-0.99-1.133-0.99-1.86v-1.86c-2.76,3.354-5.801,5.03-9.12,5.03
			c-2.28,0-4.15-0.7-5.61-2.103C275.723,87.191,274.994,85.15,274.994,82.469z M282.734,81.501c0,1.026,0.29,1.794,0.87,2.307
			c0.579,0.512,1.35,0.768,2.31,0.768c1.279,0,2.519-0.569,3.72-1.707c1.2-1.138,1.8-2.391,1.8-3.758v-1.195h-0.9
			c-2.44,0-4.35,0.237-5.73,0.712C283.424,79.101,282.734,80.06,282.734,81.501z"/>
		<path fill="#00B0FF" d="M304.874,80.549V51.787c0-0.671,0.4-1.235,1.2-1.689c0.799-0.455,1.68-0.683,2.64-0.683
			c1.04,0,1.95,0.222,2.73,0.664c0.78,0.442,1.17,0.991,1.17,1.645v9.931h7.08c0.6,0,1.08,0.305,1.44,0.912
			c0.36,0.607,0.54,1.324,0.54,2.148c0,0.825-0.18,1.541-0.54,2.149c-0.36,0.607-0.84,0.911-1.44,0.911h-7.08v12.512
			c0,1.104,0.249,1.885,0.75,2.343c0.5,0.458,1.37,0.686,2.61,0.686h2.34c1.04,0,1.85,0.334,2.43,1.004
			c0.579,0.669,0.87,1.464,0.87,2.385c0,0.962-0.291,1.778-0.87,2.447c-0.581,0.669-1.39,1.004-2.43,1.004h-2.34
			C308.573,90.155,304.874,86.954,304.874,80.549z"/>
		<path fill="#00B0FF" d="M325.813,87.698V47.493c0-0.719,0.35-1.299,1.05-1.738c0.7-0.439,1.629-0.659,2.79-0.659
			c1.08,0,2,0.22,2.76,0.66c0.759,0.439,1.14,1.019,1.14,1.738v18.402c0.6-1.291,1.56-2.38,2.88-3.268
			c1.32-0.888,2.88-1.332,4.68-1.332c2.76,0,5.169,1.2,7.23,3.6c2.06,2.4,3.09,5.26,3.09,8.58v14.22c0,0.76-0.39,1.36-1.17,1.8
			c-0.78,0.441-1.69,0.66-2.73,0.66c-1,0-1.89-0.219-2.67-0.658c-0.78-0.438-1.17-1.037-1.17-1.795V73.521
			c0-1.356-0.52-2.592-1.56-3.71c-1.041-1.117-2.26-1.675-3.66-1.675c-1.32,0-2.471,0.499-3.45,1.496
			c-0.98,0.997-1.47,2.293-1.47,3.889v14.181c0,0.599-0.39,1.158-1.17,1.676c-0.78,0.519-1.69,0.777-2.73,0.777
			c-1.08,0-1.99-0.25-2.73-0.749C326.182,88.907,325.813,88.338,325.813,87.698z"/>
		<path fill="#00B0FF" d="M356.112,78.396v-5.1c0-3.279,1.28-6.1,3.84-8.46c2.559-2.36,5.66-3.54,9.3-3.54
			c3.399,0,6.309,1.075,8.73,3.225c2.419,2.149,3.63,4.852,3.63,8.106c0,1.188-0.15,2.168-0.45,2.941
			c-0.3,0.772-0.761,1.317-1.38,1.634c-0.621,0.317-1.19,0.516-1.71,0.595c-0.52,0.08-1.2,0.119-2.04,0.119h-12.18v0.9
			c0,1.72,0.639,3.11,1.92,4.17c1.28,1.06,2.98,1.59,5.1,1.59c1.52,0,3.02-0.379,4.5-1.14c1.479-0.759,2.439-1.14,2.88-1.14
			c0.84,0,1.539,0.39,2.1,1.17c0.56,0.78,0.84,1.53,0.84,2.25c0,1.12-1.011,2.23-3.03,3.33c-2.02,1.101-4.53,1.65-7.53,1.65
			c-4.281,0-7.77-1.13-10.47-3.39C357.462,85.046,356.112,82.076,356.112,78.396z M363.853,73.356h8.76
			c0.64,0,1.089-0.103,1.35-0.309c0.26-0.206,0.39-0.606,0.39-1.205c0-1.307-0.51-2.372-1.53-3.194
			c-1.02-0.821-2.271-1.233-3.75-1.233c-1.4,0-2.62,0.402-3.66,1.205c-1.041,0.803-1.56,1.859-1.56,3.166V73.356z"/>
		<path fill="#00B0FF" d="M386.232,87.695v-23.64c0-0.72,0.35-1.299,1.05-1.74c0.7-0.44,1.61-0.66,2.73-0.66
			c1,0,1.83,0.222,2.49,0.667c0.66,0.444,0.99,1.029,0.99,1.756v2.483c0.64-1.412,1.64-2.643,3-3.692
			c1.359-1.049,2.82-1.574,4.38-1.574h1.86c0.72,0,1.37,0.343,1.95,1.029c0.579,0.686,0.87,1.473,0.87,2.36
			c0,0.928-0.291,1.735-0.87,2.422c-0.58,0.686-1.23,1.028-1.95,1.028h-1.86c-1.84,0-3.449,0.818-4.83,2.454
			c-1.38,1.636-2.07,3.77-2.07,6.402v10.711c0,0.599-0.4,1.158-1.2,1.676c-0.801,0.519-1.72,0.777-2.76,0.777
			c-1.079,0-1.98-0.25-2.7-0.75C386.591,88.906,386.232,88.336,386.232,87.695z"/>
		<path fill="#00B0FF" d="M420.432,51.876c0-0.941,0.425-1.747,1.275-2.416c0.849-0.669,1.896-1.004,3.141-1.004
			c1.117,0,2.07,0.335,2.859,1.004c0.79,0.669,1.185,1.475,1.185,2.416c0,0.905-0.395,1.701-1.185,2.389
			c-0.789,0.688-1.742,1.031-2.859,1.031c-1.244,0-2.292-0.343-3.141-1.031C420.857,53.577,420.432,52.781,420.432,51.876z
			 M421.151,87.695v-23.64c0-0.72,0.346-1.299,1.038-1.74c0.691-0.44,1.577-0.66,2.653-0.66s1.971,0.22,2.682,0.66
			c0.711,0.441,1.067,1.02,1.067,1.74v23.64c0,0.6-0.375,1.161-1.125,1.68c-0.75,0.52-1.625,0.78-2.624,0.78
			c-1.039,0-1.914-0.25-2.624-0.75C421.507,88.906,421.151,88.336,421.151,87.695z"/>
		<path fill="#00B0FF" d="M433.631,78.396v-4.8c0-3.68,1.08-6.649,3.24-8.91c2.16-2.259,5.399-3.39,9.72-3.39
			c2.72,0,5,0.48,6.84,1.44c1.84,0.96,2.76,2.04,2.76,3.24c0,0.84-0.3,1.68-0.899,2.52c-0.601,0.84-1.32,1.26-2.16,1.26
			c-0.24,0-0.95-0.27-2.13-0.81c-1.181-0.54-2.451-0.81-3.811-0.81c-3.88,0-5.819,1.826-5.819,5.478v4.764
			c0,3.652,1.959,5.478,5.88,5.478c1.359,0,2.619-0.29,3.78-0.87c1.159-0.58,1.899-0.87,2.22-0.87c0.96,0,1.749,0.4,2.37,1.2
			c0.619,0.8,0.93,1.62,0.93,2.46c0,1.24-0.971,2.37-2.91,3.39c-1.94,1.02-4.27,1.53-6.99,1.53c-4.36,0-7.619-1.12-9.779-3.36
			C434.711,85.096,433.631,82.115,433.631,78.396z"/>
		<path fill="#00B0FF" d="M459.31,78.396v-4.92c0-3.279,1.279-6.129,3.84-8.55c2.56-2.42,5.619-3.63,9.181-3.63
			c3.479,0,6.518,1.2,9.119,3.6c2.601,2.4,3.9,5.26,3.9,8.58v4.92c0,3.24-1.3,6.1-3.9,8.58c-2.601,2.481-5.64,3.72-9.119,3.72
			c-3.48,0-6.521-1.239-9.12-3.72C460.609,84.496,459.31,81.635,459.31,78.396z M467.05,78.378c0,1.429,0.52,2.699,1.56,3.811
			c1.04,1.112,2.28,1.667,3.721,1.667c1.399,0,2.629-0.555,3.689-1.667c1.06-1.112,1.59-2.382,1.59-3.811v-4.883
			c0-1.349-0.53-2.579-1.59-3.691c-1.061-1.112-2.29-1.668-3.689-1.668c-1.44,0-2.681,0.546-3.721,1.638
			c-1.04,1.091-1.56,2.331-1.56,3.721V78.378z"/>
		<path fill="#00B0FF" d="M490.269,87.695v-23.64c0-0.72,0.35-1.299,1.05-1.74c0.699-0.44,1.63-0.66,2.79-0.66
			c0.96,0,1.771,0.222,2.43,0.667c0.66,0.444,0.99,1.03,0.99,1.757v1.817c0.64-1.291,1.67-2.38,3.09-3.268
			c1.42-0.888,3.069-1.332,4.95-1.332c2.76,0,5.17,1.2,7.23,3.6c2.06,2.4,3.09,5.26,3.09,8.58v14.22c0,0.76-0.39,1.36-1.17,1.8
			c-0.78,0.441-1.69,0.66-2.73,0.66c-1,0-1.89-0.219-2.67-0.658c-0.78-0.438-1.17-1.037-1.17-1.795V73.521
			c0-1.396-0.521-2.643-1.56-3.74c-1.041-1.097-2.261-1.646-3.66-1.646c-1.32,0-2.471,0.499-3.45,1.496
			c-0.98,0.997-1.47,2.293-1.47,3.889v14.181c0,0.599-0.391,1.158-1.17,1.676c-0.78,0.519-1.69,0.777-2.73,0.777
			c-1.08,0-1.99-0.25-2.729-0.75C490.638,88.906,490.269,88.336,490.269,87.695z"/>
		<path fill="#00B0FF" d="M531.849,85.535c0-0.72,0.263-1.47,0.789-2.25c0.526-0.78,1.134-1.17,1.821-1.17
			c0.444,0,1.002,0.201,1.67,0.602c0.668,0.401,1.548,0.811,2.641,1.23c1.094,0.419,2.389,0.628,3.887,0.628
			c2.955,0,4.433-0.836,4.433-2.51c0-0.934-0.491-1.672-1.471-2.218c-0.981-0.545-2.16-0.992-3.54-1.343
			c-1.38-0.35-2.769-0.768-4.17-1.254c-1.4-0.486-2.59-1.304-3.569-2.452c-0.982-1.147-1.471-2.616-1.471-4.407
			c0-2.482,0.86-4.619,2.58-6.41c1.72-1.79,4.44-2.686,8.16-2.686c2.48,0,4.69,0.38,6.63,1.14c1.939,0.761,2.91,1.68,2.91,2.76
			c0,0.681-0.27,1.47-0.81,2.37c-0.54,0.9-1.211,1.35-2.011,1.35c-0.32,0-1.19-0.249-2.609-0.75c-1.421-0.5-2.751-0.75-3.99-0.75
			c-1.36,0-2.4,0.273-3.12,0.818c-0.72,0.544-1.08,1.147-1.08,1.809c0,0.662,0.36,1.207,1.08,1.634
			c0.72,0.428,1.609,0.759,2.67,0.993c1.06,0.233,2.197,0.554,3.413,0.963c1.215,0.409,2.343,0.885,3.381,1.43
			c1.039,0.545,1.912,1.392,2.618,2.54c0.704,1.147,1.058,2.539,1.058,4.173c0,2.771-0.97,4.95-2.909,6.538
			c-1.941,1.589-4.65,2.383-8.131,2.383c-3,0-5.56-0.521-7.68-1.56C532.908,88.096,531.849,86.896,531.849,85.535z"/>
		<path fill="#00B0FF" d="M557.407,78.396v-5.1c0-3.279,1.279-6.1,3.84-8.46c2.56-2.36,5.66-3.54,9.3-3.54
			c3.399,0,6.31,1.075,8.73,3.225c2.42,2.149,3.63,4.852,3.63,8.106c0,1.188-0.15,2.168-0.45,2.941
			c-0.3,0.772-0.76,1.317-1.38,1.634c-0.62,0.317-1.19,0.516-1.71,0.595c-0.521,0.08-1.2,0.119-2.04,0.119h-12.18v0.9
			c0,1.72,0.64,3.11,1.92,4.17c1.279,1.06,2.979,1.59,5.1,1.59c1.519,0,3.019-0.379,4.5-1.14c1.479-0.759,2.439-1.14,2.88-1.14
			c0.841,0,1.54,0.39,2.101,1.17c0.56,0.78,0.84,1.53,0.84,2.25c0,1.12-1.011,2.23-3.03,3.33c-2.021,1.101-4.529,1.65-7.529,1.65
			c-4.281,0-7.771-1.13-10.471-3.39C558.757,85.046,557.407,82.076,557.407,78.396z M565.148,73.356h8.76
			c0.64,0,1.09-0.103,1.35-0.309c0.26-0.206,0.391-0.606,0.391-1.205c0-1.307-0.51-2.372-1.53-3.194
			c-1.02-0.821-2.271-1.233-3.75-1.233c-1.4,0-2.62,0.402-3.66,1.205c-1.04,0.803-1.56,1.859-1.56,3.166V73.356z"/>
		<path fill="#00B0FF" d="M587.468,80.549V51.787c0-0.671,0.399-1.235,1.199-1.689c0.8-0.455,1.681-0.683,2.641-0.683
			c1.039,0,1.95,0.222,2.73,0.664c0.78,0.442,1.17,0.991,1.17,1.645v9.931h7.08c0.601,0,1.08,0.305,1.44,0.912
			c0.359,0.607,0.54,1.324,0.54,2.148c0,0.825-0.181,1.541-0.54,2.149c-0.36,0.607-0.84,0.911-1.44,0.911h-7.08v12.512
			c0,1.104,0.25,1.885,0.75,2.343s1.37,0.686,2.61,0.686h2.34c1.04,0,1.85,0.334,2.43,1.004c0.58,0.669,0.87,1.464,0.87,2.385
			c0,0.962-0.29,1.778-0.87,2.447c-0.58,0.669-1.39,1.004-2.43,1.004h-2.34C591.167,90.155,587.468,86.954,587.468,80.549z"/>
	</g>
</g>
</svg>
